<?xml version="1.0" standalone="no"?>
<!DOCTYPE svg PUBLIC "-//W3C//DTD SVG 20010904//EN"
 "http://www.w3.org/TR/2001/REC-SVG-20010904/DTD/svg10.dtd">
<svg version="1.0" xmlns="http://www.w3.org/2000/svg"
 width="40.000000pt" height="40.000000pt" viewBox="0 0 40.000000 40.000000"
 preserveAspectRatio="xMidYMid meet">

<g transform="translate(0.000000,40.000000) scale(0.100000,-0.100000)"
fill="#000000" stroke="none">
<path d="M40 275 c-7 -8 -9 -22 -6 -31 6 -16 8 -15 20 1 12 17 14 15 21 -23
10 -59 29 -55 21 4 -3 25 -8 50 -12 55 -8 14 -30 11 -44 -6z"/>
<path d="M105 123 c4 -16 16 -49 27 -75 19 -44 23 -48 55 -48 23 0 33 4 30 13
-2 6 -17 12 -32 12 -24 0 -30 5 -37 35 -14 54 -29 90 -40 90 -6 0 -7 -11 -3
-27z"/>
<path d="M243 24 c-25 -11 -12 -24 23 -24 24 0 34 4 32 13 -5 13 -35 19 -55
11z"/>
</g>
</svg>
